<?xml version="1.0" encoding="UTF-8"?>
<svg id="Camada_1" xmlns="http://www.w3.org/2000/svg" version="1.1" viewBox="0 0 1200 630">
  <!-- Generator: Adobe Illustrator 29.8.2, SVG Export Plug-In . SVG Version: 2.1.1 Build 3)  -->
  <defs>
    <style>
      .st0 {
        fill: #bd7855;
      }

      .st1 {
        fill: #f7d55c;
      }

      .st2 {
        fill: #3aaf54;
      }

      .st3 {
        fill: #f8d466;
      }

      .st4 {
        fill: #b5805a;
      }

      .st5 {
        fill: #cd8759;
      }

      .st6 {
        fill: #bc7853;
      }

      .st7 {
        fill: #f2af72;
      }

      .st8 {
        fill: #373733;
      }

      .st9 {
        fill: #e1ae75;
      }

      .st10 {
        fill: #f3b075;
      }
    </style>
  </defs>
  <path class="st10" d="M437.56,32.38c1.34-3.17-.14-6.38,4.28-9.97,12.66-10.28,32.43,7.2,39.57,17.45,2.42,3.48,5.61,12.93,9.78,13.34,2.85.29,21.33-7.66,26.64-8.91,72.25-17.03,154.25,32.8,196.12,88.23l-23.83-3.26c-24.54.94-46.78,16.2-52.76,40.34-2.96,11.94-2.79,24.81-5.27,36.92-2.21,10.8-7.53,21.85-8.19,32.95-.81,13.59,4.14,25.88,14.86,34.3-.17.01-1.19,1.01-2.56,1.1-12.02.72-29.78-1.01-41.14,1.25-3.23.64-8.28,3.6-4.74,6.88.29.27,5.25,2.36,5.56,2.36h18c.26,0,1.55.97,1.07,2.11-.4.93-12.5,11.16-14.85,13.69-4.33,4.66-9.7,13.71-14.21,17.48-1.09.92-1.92,1.84-3.54,1.37-11.16-6.35-22.73-16.54-34.26-21.87-8.99-4.16-20.07-6.1-29.54-9.59-36.39-13.44-72.92-28.27-104.62-50.81-5.08-3.61-28.7-21.12-29.35-25.69-.18-1.26.06-2.48.54-3.64,12.27-28.54,24.83-56.83,41.41-83.17,4.44-7.05,10.24-13.64,14.58-20.22,3.63-5.5,12.42-16.59,7.04-22.03,5.75.8,14.84.39,19.6-3.15,1.7-1.26,3.71-4.86,4.76-5.28,3.71-1.51,6.73.83,7.03-7.01.47-12.02-21.63-37.23-33.99-35.13-.94.16-1.45,1-1.63,1.03-2.85.58-3.26,1.18-6.35-1.05ZM557.92,92.83c-7.22-6.22-22.73-7.59-31.64-5.35-4.04,1.02-7.26,1.12-6.12,6.03,12.71-1.23,22.52-2.19,33.8,4.83,2.34,1.46,13.98,12.6,10.2,2.49-.41-1.09-5.29-7.2-6.24-8.01ZM515.15,118.54c2.16,2.3,7.63,1.79,9.27,2.88.84.56,5.23,11.09,10.63,14.71,12.13,8.14,34.39,1.96,24.28-12.58-7.52-10.82-29.12-16.69-41.59-14-4.53.98-5.36,6.04-2.6,8.98Z"/>
  <path class="st1" d="M648.91,398.05c1.39,2.61,4.75,4.83,4.29,7.48l-9.1,21.63c-5.27.27-21.26,4.84-24.94,1.55-1.24-1.11-5.72-9.43-7.96-12.1-28.94-34.56-93.78-35.07-110.13-59.02-5.82-8.53-6.69-8.27-13.23-15.3-4.07-4.38-14.87-22.21-17.73-23.47-5.56-2.45-5.69,2.13-4.51,6.62,1.24,4.75,11.69,19.32,15.38,23.15-29.31,11.7-56.79,30-75.18,55.86-8.13-13.11-13.62-23.68-19.11-38.43-1.11-3-5.44-25.6-11.35-19.31-3.76,4,3.35,24.1,5.3,29.54,3.58,9.96,20.49,44.54,28.79,49.33,6.2,3.58,9.69-2.38,11.55-2.05.68.13,8.91,6.55,11.26,7.81,16.21,8.76,43.12,12.43,61.43,12.11,7.85-.14,17.66-1.44,25.86-2.2,5.27-.49,14.88-5.32,19.67.07l-45.53,5.28c-3.98,2.09-8.13,12.45-5.28,16.85l-152.38,61.07c-3.13-7.42-5.37-15.07-7.19-22.91-13.84-59.4-6.83-126.65,11.03-184.41,8.48-27.38,19.34-54.59,31.55-80.35,1.61-.39,12.5,11.66,14.83,13.67,27.71,23.99,63.92,44.89,97.2,60.3,9.62,4.45,29.34,14.22,38.79,16.23,8.58,1.82,10.4-7.21,13.1-6.8l49.17,27.07c4.08.37,10.18-6.79,13-9.79,3.21-3.42,15.06-20.22,16.91-21.19,2.04-1.07,3.66,1.63,5.67,1.46,4.43-.35,19.58-22.84,20.8-21.92,5.55,18.88,14.63,33.85,27.54,48.48-7.13,2.64-13.96,6.11-20.11,10.54-.35-8.14,1.37-21.62-.24-28.75-.28-1.26-1.24-3.48-2.54-3.8-4.46-1.09-5.5,7.91-5.74,10.91-1.71,21.26-1,45.79,9.13,64.78Z"/>
  <path class="st5" d="M713.94,132.52c8.05,10.65,16.95,21.51,19.11,35.24-8.95.85-20.28,15.95-14.36,23.8,4.4,5.83,13.54-6.9,16.42-9.5-.23,4.67-.03,11.72-1.08,16.12-.58,2.41-2.79,9.76-3.86,13.2-2.05,6.58-15.32,36.37-21.22,37.99-2.91.8-9.13-4.74-9.69-6.92-.33-1.27,6.05-17.53,6.81-21.33.95-4.79,3.31-27.41-5.28-15.8-6.36,8.6-4.65,26.99-13.29,37.36-5.85,7.02-20.3,10.95-29.15,10-8.75-.94-14.29-7.98-22.75-8.43,4.88,17.49,28.11,20.81,43.4,15.27,2.51-.91,12.21-6.76,13.08-6.67.33.03,5.7,2.83,5.86,3.12,1.92,3.3-9.41,9-12.2,10.27-15.84,7.19-30.32,6.45-46.97,7.53-10.72-8.42-15.67-20.71-14.86-34.3.66-11.1,5.98-22.15,8.19-32.95,2.47-12.11,2.31-24.98,5.27-36.92,5.98-24.14,28.21-39.39,52.76-40.34l23.83,3.26ZM661.74,169.62c-9.62,2.86,5.5,22.32,12.97,23.59,4.09.69,9.28-3.36,9.56-7.53.64-9.48-14.08-18.57-22.53-16.06Z"/>
  <path class="st2" d="M536.04,303.28c1.32,1.47-10.16,11.91-10.78,14.56l-2.32.18c-48.64-20.04-99.42-44.73-138.34-80.61-2.1-1.94-11.57-10.85-11.61-12.63-.03-1.26,2.88-6.85,3.68-6.86,8.7,10.18,18.99,18.34,29.85,26.14,38.16,27.41,84.69,45.8,129.52,59.23Z"/>
  <path class="st5" d="M443.92,33.44c.35,6.2,8.21,8.76,12.24,12.59,3.23,3.08,11.03,12.36,12.37,16.14,1.46,4.13.55,8.82,3.99,12.37-1.05.43-3.05,4.02-4.76,5.28-4.76,3.54-13.85,3.95-19.6,3.15-6.45-.9-17.41-10.46-20-16.46-7.74-17.87,3.99-21.29,9.41-34.14,3.09,2.24,3.5,1.63,6.35,1.05Z"/>
  <path class="st2" d="M486.86,356.02c-.56.88-15.58,8.2-18.5,10.05-20.61,13.07-38.35,29.96-54.1,48.4-4.29,2.45-6.65-7.1-8.46-10.01,18.4-25.87,45.87-44.17,75.18-55.86,1.39,1.45,8.48,3.41,5.88,7.42Z"/>
  <path class="st9" d="M627.1,49.24l-32.79-10.58c7.95-34.15,35.92-16.27,32.79,10.58Z"/>
  <path class="st2" d="M545.03,307.78c3.82-.32,31.34,21.36,38.22,21.83,8,.55,20.12-23.5,25.32-22.12.78.21,1.66,1.62,1.65,2.64-.03,2.13-23.3,28.9-25.95,28.96l-44.54-24.19c-1.67-1.68,4.81-7.07,5.32-7.11Z"/>
  <path class="st2" d="M637.7,285.36c-5.4,7.25-11.03,14.56-16.88,21.46-2.09,2.46-8.59-5.89-5.44-8.35,8.36-4.38,11.36-15.69,22.32-13.11Z"/>
  <path class="st8" d="M515.15,118.54c-2.76-2.94-1.93-8,2.6-8.98,12.47-2.69,34.07,3.18,41.59,14,10.1,14.54-12.15,20.71-24.28,12.58-5.41-3.63-9.79-14.15-10.63-14.71-1.64-1.09-7.11-.57-9.27-2.88Z"/>
  <path class="st8" d="M472.51,74.54c-3.44-3.55-2.53-8.24-3.99-12.37-1.33-3.78-9.13-13.07-12.37-16.14-4.03-3.84-11.89-6.4-12.24-12.59.18-.04.68-.87,1.63-1.03,12.36-2.1,34.46,23.11,33.99,35.13-.3,7.84-3.32,5.5-7.03,7.01Z"/>
  <path class="st4" d="M557.92,92.83c.95.82,5.84,6.92,6.24,8.01,3.78,10.11-7.86-1.04-10.2-2.49-11.29-7.02-21.09-6.06-33.8-4.83-1.13-4.91,2.09-5.02,6.12-6.03,8.91-2.25,24.42-.87,31.64,5.35Z"/>
  <path class="st8" d="M661.74,169.62c8.45-2.51,23.17,6.58,22.53,16.06-.28,4.16-5.47,8.22-9.56,7.53-7.47-1.26-22.59-20.73-12.97-23.59Z"/>
  <path class="st8" d="M876.39,310.85c-3.88-.87-8.18-.61-12.1-.33-38.62,2.7-77.45,3.15-116.18,4.32-9.95.31-19.9.6-29.85.9-8.86.27-20.22-1.35-28.34,2.79-4.04,2.06-6.79,5.66-8.56,9.75-1.05,2.42-2.27,11.43-5,10.83-3.36-.75-17.2-22.83-19.41-27.06-2.03-3.87-11.37-23.75-9.58-26.56.56-.88,14.98-2.01,18.06-2.57,42.27-7.65,64.85-32.17,76.21-72.77,10.65-38.08-1.23-64.9-26.1-93.45-21.14-24.28-48.47-46.25-76.86-61.57-1.53-10.72-.3-18.85-5.87-28.95-6.4-11.57-15.83-18.13-29.47-15.87-12.86,2.12-16.98,24.16-21.36,24.98-1.97.37-12.33-2.54-15.78-2.89-19.75-1.98-37.19-.9-56.42,3.91-3.85.96-14.08,6.17-17.01,4.34-.28-.18-1.59-4.17-2.47-5.44-10.25-14.77-28.02-30.05-47.54-25.56-9.36,2.16-18.69,20.68-22.71,29.05-8.08,16.84-6.97,30.71,6.9,43.77,1.92,1.81,9.56,6.36,9.41,8.21-17.95,25.54-32.48,51.49-46.31,79.41-5.88,11.85-10.3,24.58-16.53,36.25-3.02,5.66-8.65,10.36-9.9,17.65-2.08,12-5.3,15.86-9.92,26.92-24.67,59.06-40.12,108.65-41.11,173.57-.1,6.29-.15,12.69,0,18.97.45,19.75,3.67,71.6,16.03,86.81,4.3,5.28,7.92,2.41,11.49,4.38,1.05.58,9.16,14.58,11.22,17.28,26.02,34.1,68.52,53.29,111.1,55.95,15.18.95,30.49-.87,45.48-1.09,40.09-.6,84.49,15.72,124.95,18,12.4.7,22.58-2.31,30.03-12.35,6.89-9.25,6.69-21.66,18.76-25.61l97.52,19.87c7.74,1.01,15.44-.93,21.61-5.64,15.02-11.46,23.45-34.55,30.99-51.37,6.3-14.07,23.83-49.18,21.83-63.46-.89-6.37-4.73-8.88-10.97-9.09-1.63-.05-3.9,1.45-5.23,1.03-.5-.16-3.68-5.5-4.92-6.7l38.88-98.46c4.09-13.07,10.61-26.53,14.63-39.19,1.82-5.73,2.53-12.79-1.32-17.89-2.18-2.89-5.09-4.37-8.3-5.09ZM627.11,49.25l-32.79-10.59c7.96-34.15,35.92-16.26,32.79,10.59ZM385.12,208.4c12.26-28.55,24.82-56.84,41.42-83.18,4.43-7.04,10.24-13.64,14.58-20.22,3.63-5.5,12.42-16.6,7.03-22.02-6.45-.9-17.4-10.46-20-16.46-7.73-17.88,3.99-21.29,9.41-34.14,1.34-3.17-.14-6.39,4.29-9.97,12.66-10.28,32.42,7.2,39.56,17.44,2.43,3.47,5.61,12.92,9.78,13.35,2.85.29,21.33-7.67,26.64-8.91,72.25-17.03,154.25,32.79,196.11,88.23,8.05,10.64,16.95,21.51,19.12,35.24-8.95.84-20.28,15.95-14.36,23.79,4.39,5.84,13.55-6.89,16.42-9.49-.23,4.66-.03,11.72-1.08,16.12-.58,2.41-2.8,9.76-3.87,13.2-2.04,6.58-15.31,36.36-21.22,37.98-2.91.8-9.12-4.74-9.69-6.92-.33-1.27,6.05-17.53,6.8-21.33.95-4.78,3.31-27.41-5.27-15.8-6.37,8.61-4.65,26.99-13.29,37.36-5.86,7.02-20.31,10.96-29.15,10.01-8.74-.94-14.29-7.98-22.75-8.44,4.88,17.5,28.1,20.81,43.39,15.27,2.51-.91,12.21-6.76,13.08-6.67.33.03,5.7,2.83,5.87,3.11,1.91,3.3-9.41,9.01-12.2,10.27-15.84,7.19-30.32,6.45-46.98,7.53-.16.01-1.19,1.01-2.56,1.1-12.02.72-29.79-1.01-41.14,1.25-3.24.64-8.27,3.6-4.74,6.88.3.27,5.25,2.37,5.56,2.37h18c.25,0,1.55.97,1.07,2.11-.4.93-12.51,11.15-14.85,13.68-4.33,4.67-9.71,13.7-14.21,17.48-1.09.92-1.92,1.84-3.54,1.37-11.16-6.36-22.73-16.54-34.26-21.88-9-4.16-20.07-6.09-29.55-9.6-36.39-13.44-72.92-28.26-104.61-50.81-5.08-3.61-28.71-21.12-29.35-25.69-.18-1.26.05-2.48.54-3.63ZM637.7,285.36c-5.41,7.25-11.03,14.56-16.88,21.45-2.09,2.46-8.59-5.89-5.45-8.35,8.36-4.38,11.36-15.69,22.33-13.1ZM610.21,310.13c-.02,2.12-23.3,28.9-25.95,28.95l-44.55-24.19c-1.68-1.68,4.81-7.07,5.31-7.12,3.82-.32,31.34,21.36,38.22,21.83,8,.54,20.11-23.5,25.31-22.13.79.21,1.65,1.63,1.64,2.65ZM376.68,217.92c8.7,10.18,18.99,18.33,29.84,26.13,38.16,27.41,84.69,45.8,129.52,59.23,1.33,1.47-10.16,11.9-10.78,14.55l-2.32.19c-48.64-20.04-99.41-44.74-138.34-80.61-2.1-1.94-11.57-10.85-11.61-12.63-.03-1.26,2.87-6.85,3.68-6.86ZM336.01,524.53c-3.13-7.41-5.36-15.06-7.19-22.9-13.84-59.4-6.83-126.66,11.04-184.41,8.47-27.38,19.33-54.59,31.54-80.36,1.61-.38,12.5,11.67,14.83,13.68,27.71,23.99,63.92,44.89,97.21,60.29,9.61,4.46,29.34,14.22,38.77,16.23,8.59,1.83,10.4-7.21,13.1-6.79l49.17,27.07c4.08.37,10.19-6.79,13-9.79,3.21-3.42,15.06-20.22,16.92-21.19,2.03-1.07,3.65,1.62,5.65,1.46,4.43-.36,19.58-22.84,20.8-21.93,5.55,18.89,14.63,33.86,27.54,48.48,1.08,1.22,6.02,4.36,4.83,6.35-.7,1.17-21.06,9.63-23.37,13.67-1.58.51-1.53-8.52-1.57-9.47-.34-8.14,1.37-21.62-.23-28.75-.29-1.26-1.25-3.48-2.55-3.8-4.45-1.09-5.48,7.91-5.73,10.91-1.72,21.25-1.01,45.79,9.12,64.76,1.4,2.62,4.75,4.84,4.29,7.49l-9.1,21.63c-5.26.27-21.26,4.83-24.93,1.55-1.24-1.11-5.73-9.44-7.97-12.1-28.94-34.57-93.78-35.07-110.13-59.02-5.82-8.53-6.69-8.27-13.23-15.3-4.07-4.38-14.87-22.21-17.73-23.47-5.56-2.46-5.69,2.13-4.51,6.62,1.24,4.75,11.7,19.32,15.38,23.15,1.39,1.45,8.49,3.41,5.89,7.41-.57.89-15.59,8.21-18.51,10.06-20.61,13.07-38.35,29.96-54.1,48.4-4.29,2.45-6.65-7.1-8.46-10.01-8.13-13.11-13.61-23.68-19.11-38.43-1.11-3-5.43-25.61-11.35-19.31-3.76,4,3.35,24.1,5.3,29.54,3.58,9.96,20.49,44.54,28.79,49.33,6.21,3.58,9.69-2.38,11.55-2.05.68.12,8.91,6.55,11.26,7.81,16.21,8.76,43.12,12.43,61.45,12.1,7.84-.14,17.66-1.43,25.85-2.19,5.28-.49,14.88-5.32,19.68.07l-45.53,5.28c-3.99,2.09-8.14,12.45-5.29,16.85l-152.38,61.06ZM659.37,389.7c-.38.87-.27,2.97-2.07,2.1-2.43-1.17-6.46-13.32-5.65-16.09.76-2.63,15.51-13.66,16.76-12.35.97,1-7.79,23.5-9.04,26.34ZM584.35,489.71c2.36.39,4.82-.15,7.16.24,17.09,2.89,33.92,7.64,51.48,6.22-11.16,13.19-17.5,29.48-23.83,45.31-19.49-18.36-35.6-40.19-57.71-55.84,8.11-.86,15.31,2.79,22.89,4.08ZM502.09,465.13c-5.47-.71-4.21-4.71-4.17-9.02l126.35,22.32c2.43.94,1.97,5.82,2.83,8.24l-125.01-21.54ZM530.75,452.93c.41-2.13,2.25-1.72,3.71-2.09,3.29-.84,15.91-2.38,19.06-2.21,5.82.31,12.24,10.82,22.14,9.53,6.67-.88,6.73-6.13,7.66-6.36,5.17-1.25,12.35,6.93,19.41,1.64,1.65-1.22,2.28-4.01,3.89-4.56,2.8-.95,6.56.65,9.87-.72,3.3-1.36,4.72-7.49,6.61-8.25,4.05-1.6,12.06-1.17,16.71-2.79l-12.33,31.71-96.74-15.91ZM595.94,443.51c-4.01,5.73-16.61-12.31-20.19-14.8-13.88-9.68-.69,12.74-.52,15.37.42,6.54-6.67,2.08-9.88.24-14.67-8.39-18.31-16.52-38.31-15.61-31.03,1.43-58.35,8.9-88.65-5.59-3.2-1.53-12.85-6.08-10.93-10.22.67-1.44,16.08-16.31,18.54-18.48,6.05-5.32,14.22-11.54,20.87-16.13,4.3-2.97,23.47-16.14,27.66-13.67.41.24,1.06,2.52,2.25,3.52,31.91,26.63,90.58,24.61,110.37,60.91,2.2,4.01,5.42,13.8-.62,6.95-4.76-5.42-8.47-16.77-17.56-15.73-2.82,2.82,10.56,18.09,6.95,23.24ZM674.24,550.98c-4.11,15.18-9.49,35.97-16.9,49.57-8.39,15.39-14.96,14.55-31.28,12.61-33.91-4.03-84.59-18.94-115.94-17.91-24.61.81-38.56,1.89-63.73-.68-29.56-3-61.81-20.7-81.86-44.17-5.26-6.14-9.64-13.06-13.77-20.01l114.05-47.7c19.01-2.98,37.52-6.58,56.81-3.28,41.02,7.02,65.44,46.02,93.29,72.63,1.12,4.27.41,8.82.55,13.2.04,1.51,1.05,3.09,1.05,3.64,6.8,1.1,9.42-11.55,11.19-16.8,3.48-10.34,6.02-19.35,11.2-29.95,5.4-11.04,15.39-28.36,28.43-30.19,1.51,5.05-7.04,21.19-4.83,24.28.74,1.03,2.05,1.2,3.24,1.07,3.95-.44,11.21-21.75,19.59-21.14,2.2,2.42-9.29,48.11-11.11,54.82ZM682.18,573.64c-1.05.79-1.33,2.05-3.17,1.57,4.42-21.45,12.23-42.39,15.54-64.1,1.07-7.01,2.4-13.1.34-20.22,4.51,1.44,18.18-2.8,21.25-.6,4.49,3.21.13,31.8-1.44,37.7-4.93,18.54-17.45,34.28-32.52,45.64ZM843.13,487.73c2.02,2.07-7.01,25.65-8.58,29.71-6.31,16.43-14.86,35.59-23.67,51.49-6.35,11.48-18.54,35.36-35,24.2-5.4-3.66-10.67-17.96-13.76-17.97-5.76-.02-.85,16.12-1.59,16.9l-65.66-12.65c-.21-1.63.01-2.46,1-3.75,1.74-2.27,8.34-6.64,11.2-9.94,7.75-8.93,20.63-34.31,20.63-45.87v-31.09c6.7-1.39,14.33,7.72,18.54,12.64,7.8,9.11,13.76,20.83,21.78,29.96,2.78,3.58-.56,6.42-1.08,9.63-1.18,7.33.92,14.94,7.17,6.09,10.35-14.69,14.76-32.53,27.74-48.28,2.75-3.34,19.85-21.78,24.33-17.41.73,8.21-9.52,16.63-4.65,24.31,7.28,1.27,13.64-18.47,21.59-17.98ZM748.87,488.26l1.58-1.59,49.26-3.16-19.04,25-5.33,12.93c-1.77.41-2.13-.57-3.14-1.59-8.25-8.35-14.82-22.74-23.33-31.59ZM830.21,451.12l-.8,2.11c-1.75,4.61-3.56,9.33-6.76,13.09-10.61,12.5-38.48,7.59-53.1,8.77-9.56.77-19.08,1.91-28.61,2.99-10.48,1.19-20.96,2.37-31.47,3.21-6.37.51-12.76.86-19.15.95-12.09.18-23.88-.52-35.91,2.22-5.22,1.19-18.96,3.93-19.51-4.6-.31-4.73,3.31-9.26,5-13.44,17-41.86,31.44-86.34,48.88-128.62,1.1-2.65,2.59-7.25,4.57-9.16,5.59-5.42,31.37-2.94,40.21-3.18,23.02-.65,46.29-1.47,69.32-2.15,9.09-.27,18.35-.77,27.53-1.06,11.5-.36,22.95-.83,34.47-1,3.79-.06,10.5-1.51,11.89,3.42.71,2.54-.24,5.21-1.19,7.68-15.16,39.58-30.34,79.16-45.38,118.79Z"/>
  <path class="st7" d="M616.52,568.89c0,.52-1.08,2.13-1.06,3.64.18,10.74-1.85,25.23,4.84,34.23,1.98,2.67,5.41,3.41,5.75,6.4-33.9-4.04-84.59-18.94-115.94-17.91-24.61.81-38.56,1.89-63.73-.67-29.56-3.01-61.8-20.71-81.86-44.17-5.26-6.15-9.64-13.06-13.77-20.01l114.06-47.7c19.01-2.98,37.52-6.59,56.81-3.29,41.02,7.02,65.45,46.02,93.29,72.62,1.12,4.27.42,8.82.55,13.2.04,1.51,1.05,3.09,1.06,3.64Z"/>
  <path class="st0" d="M727.71,488.78c6.7-1.39,14.33,7.72,18.54,12.64,7.8,9.11,13.76,20.83,21.78,29.97,2.78,3.58-.56,6.42-1.08,9.63-1.18,7.33.93,14.95,7.17,6.09,10.35-14.68,14.76-32.52,27.74-48.27,2.75-3.34,19.84-21.78,24.32-17.42.74,8.21-9.51,16.64-4.65,24.31,7.28,1.27,13.65-18.46,21.59-17.99,2.02,2.07-7.01,25.65-8.57,29.71-6.32,16.43-14.87,35.59-23.67,51.49-6.35,11.48-18.55,35.36-35,24.21-5.4-3.66-10.68-17.97-13.75-17.98-5.77-.02-.85,16.12-1.6,16.91l-65.65-12.65c-.22-1.62,0-2.46,1-3.75,1.74-2.27,8.33-6.64,11.2-9.94,7.76-8.93,20.64-34.31,20.64-45.86v-31.09Z"/>
  <path class="st7" d="M494.54,364.62c.42.25,1.06,2.53,2.25,3.52,31.91,26.63,90.58,24.61,110.37,60.91,2.19,4.01,5.41,13.8-.62,6.94-4.76-5.41-8.47-16.76-17.55-15.72-2.82,2.81,10.55,18.09,6.94,23.24-4,5.73-16.61-12.32-20.18-14.81-13.88-9.69-.7,12.74-.52,15.37.43,6.54-6.67,2.08-9.88.25-14.67-8.4-18.31-16.53-38.3-15.61-31.03,1.43-58.35,8.9-88.65-5.59-3.2-1.53-12.85-6.07-10.93-10.21.67-1.43,16.08-16.31,18.55-18.48,6.04-5.32,14.21-11.53,20.86-16.13,4.3-2.97,23.47-16.15,27.66-13.68Z"/>
  <path class="st6" d="M616.52,568.89c6.8,1.1,9.42-11.55,11.19-16.8,3.48-10.33,6.01-19.35,11.2-29.96s15.4-28.35,28.43-30.18c1.5,5.05-7.05,21.19-4.83,24.29.74,1.04,2.05,1.2,3.24,1.07,3.95-.45,11.21-21.75,19.59-21.14,2.19,2.42-9.3,48.11-11.11,54.81-4.1,15.19-9.49,35.97-16.9,49.58-8.38,15.39-14.96,14.54-31.29,12.6-.34-2.99-3.77-3.73-5.75-6.4-6.69-9-4.66-23.49-4.84-34.23-.02-1.51,1.07-3.12,1.06-3.64Z"/>
  <path class="st7" d="M642.99,496.17c-11.16,13.19-17.5,29.49-23.82,45.31-19.49-18.36-35.6-40.19-57.72-55.85,8.1-.85,15.31,2.8,22.9,4.08,2.35.4,4.81-.14,7.16.25,17.1,2.89,33.92,7.64,51.48,6.21Z"/>
  <path class="st7" d="M679,575.21c4.43-21.44,12.23-42.39,15.55-64.1,1.07-7.01,2.39-13.11.34-20.22,4.51,1.44,18.18-2.8,21.25-.6,4.49,3.21.13,31.8-1.44,37.71-4.93,18.53-17.45,34.28-32.51,45.64-1.06.8-1.33,2.06-3.18,1.57Z"/>
  <path class="st3" d="M639.81,437.14l-12.33,31.7-96.74-15.91c.41-2.13,2.25-1.72,3.71-2.09,3.29-.84,15.92-2.37,19.06-2.21,5.83.31,12.25,10.82,22.14,9.53,6.67-.87,6.73-6.13,7.65-6.35,5.17-1.24,12.35,6.92,19.42,1.64,1.65-1.23,2.27-4.01,3.89-4.56,2.8-.95,6.55.66,9.87-.72,3.3-1.37,4.72-7.49,6.61-8.25,4.05-1.61,12.06-1.18,16.71-2.79Z"/>
  <path class="st3" d="M627.1,486.67l-125.01-21.54c-5.48-.7-4.21-4.7-4.17-9.02l126.34,22.32c2.43.94,1.97,5.82,2.83,8.24Z"/>
  <path class="st9" d="M668.4,363.35c.96,1.01-7.79,23.51-9.04,26.35-.38.87-.27,2.97-2.06,2.1-2.44-1.18-6.47-13.32-5.66-16.1.76-2.62,15.51-13.66,16.76-12.35Z"/>
  <path class="st2" d="M668.41,344.38c1.08,1.22,6.01,4.35,4.82,6.35-.69,1.16-21.05,9.62-23.36,13.67-1.59.51-1.54-8.52-1.58-9.48,6.16-4.42,12.99-7.89,20.12-10.54Z"/>
  <g>
    <path class="st3" d="M864.8,320.53c-49.89,2.35-99.79,3.48-149.73,4.49-2.34.05-4.69.1-7.03.15-5.24.07-10.58-.49-14.67,3.47-1.98,1.91-3.47,6.51-4.57,9.16-17.44,42.29-31.89,86.76-48.89,128.62-1.59,3.92-7.9,13.81-3.09,17.37,1.31.97,2.81,1.99,4.44,1.95,4.93-.12,8.67.53,12.22-.06,6.23-1.03,12.4-1.96,15.68-2.37,2.45-.31,4.87-.54,13.52-.94,11.52-.53,18.48-.46,22.97-.78,16.09-1.15,32.1-3.2,48.13-4.95,5.25-.57,14.52-1.71,19.81-1.78,15.22-.2,26.69,1.72,40.9-2.3,9.05-2.57,12.54-13.89,15.67-21.45,9.6-23.19,18.04-46.83,26.76-70.36,4.34-11.72,9.09-23.07,14.32-34.42,2.67-5.8,9.39-16.18,5.82-22.88-.25-.47-.55-.9-.92-1.28-.49-.51-1.11-.9-1.76-1.18-1.83-.79-3.91-.71-5.91-.62-1.23.06-2.45.12-3.68.18ZM763.07,423.31c-30.97,3.59-24.12-39.34,3.62-41.77,25.89-2.26,24.05,38.56-3.62,41.77Z"/>
    <path class="st8" d="M763.07,423.31c-30.97,3.59-24.12-39.34,3.62-41.77,25.89-2.26,24.05,38.56-3.62,41.77Z"/>
  </g>
</svg>