<?xml version="1.0" encoding="UTF-8"?>
<svg id="Camada_1" xmlns="http://www.w3.org/2000/svg" version="1.1" viewBox="0 0 1024 1024">
  <!-- Generator: Adobe Illustrator 29.8.2, SVG Export Plug-In . SVG Version: 2.1.1 Build 3)  -->
  <defs>
    <style>
      .st0 {
        fill: #f7d55c;
      }

      .st1 {
        fill: #3aaf54;
      }

      .st2 {
        fill: #cd8759;
      }

      .st3 {
        fill: #353633;
      }

      .st4 {
        fill: #373733;
      }

      .st5 {
        fill: #f3b075;
      }

      .st6 {
        fill: #d58958;
      }
    </style>
  </defs>
  <path class="st4" d="M586.88,44.47c20.13-.97,41.95,8.01,54.81,23.65,17.3,21.05,18.48,44.01,16.07,69.78,4.1,3.42,16.92,10.95,22,14.12,12.63,7.86,25.1,15.99,37.4,24.36,53.91,36.93,108.6,83.56,147.07,136.8,6.26,8.91,12.86,18.15,17.92,27.77,46.39,88.15,18.24,201.18-65.97,255.51-11.46,7.39-24.08,11.65-36.12,17.96l92.12-.03c15.83-.02,39.04-1.47,53.48,1.53,27.25,5.64,39.28,32.66,30.22,57.93-5.47,15.26-10.26,29.94-15.46,44.59l-27.39,77.18-21.75,61.12c-4.04,11.38-7.99,23.12-12.5,34.28-7.28,18.01-25.49,33.79-45.03,36.29-14.65,1.88-30.36,1.25-45.19,1.25l-75.29-.03h-265.94s-95.42-.01-95.42-.01c-13.71,0-27.42.09-41.14.13-9.79.03-18.7-2.76-25.62-10.01-9.86-10.33-8.33-23.77-8.15-36.99-32.71-2.34-62.72-8.32-92.56-22.47-48.97-22.68-86.68-64.2-104.54-115.11-29.56-83.13-8.85-183.67,10.66-267.22,10.92-46.75,26.01-97.09,43.44-141.69,8.53-21.73,17.91-43.12,28.13-64.12,6.05-12.49,12.64-24.83,18.58-37.31-11.2-11.6-24.89-19.73-35.24-33.37-28.98-38.22-14.53-108.46,23.95-135.73,10.94-7.65,23.84-11.98,37.18-12.49,55.46-2.15,91.97,58.66,97.83,58.77,5.16.09,17.08-4.78,22.57-6.36,8.41-2.48,16.91-4.68,25.47-6.59,54.74-11.94,118.02-16.17,173.58-6.7,11.32-29.57,28.58-44.56,60.83-46.79Z"/>
  <path class="st5" d="M181.56,101.31c18.73-22.75,44.83-18.05,65.6-.71,7.68,6.49,14.68,13.75,20.88,21.67,6.13,7.82,14.86,21.5,22.4,26.87,14.15-.71,33.17-8.69,47.42-12.77,19.18-5.5,38.73-9.64,58.5-12.39,34.85-4.83,78.67-6.99,113.6-2.08,19.44,2.83,38.61,7.32,57.3,13.42,11.26,3.79,24.3,9.37,35.17,14.14,64.32,28.7,123.72,67.35,176,114.53,9.55,8.62,25.77,24.34,33.96,34.33,23.05,25.61,41.55,48.06,51.24,82.52-16.74,6.6-35.43,17.8-33.47,39.62,1.03,11.55,17.68,10.9,25,6.71,6.12-2.78,10.61-6.73,15.7-11.16,1.85,9.51,1.59,18.16.98,27.7-4.6,71.2-56,133.77-127.52,145.73-35.7,5.96-73.04,10.43-109.27,9.98-15.62-.03-31.39.64-47.2.45-8.41-.1-28.35-.47-35.8.39-4.16.46-8.2,1.69-11.92,3.61-15.88,8.17-22.42,26.35-27.43,42.23-21.72-9.48-44.88-23.57-66.43-32-96.58-37.85-195.29-76.52-276.57-142.77-9.07-7.39-27.83-23.24-32.58-33.3.46-10.97,6.87-30.92,10.33-41.72,12.5-38.79,28.02-76.53,46.42-112.89,10.57-20.87,22.1-39.92,32.27-61.09-11.72-7.02-22.9-14.71-33.84-22.86-35.97-26.79-37.59-63.75-10.71-98.14Z"/>
  <path class="st2" d="M812.38,298.32c23.05,25.61,41.55,48.06,51.24,82.52-16.74,6.6-35.43,17.8-33.47,39.62,1.03,11.55,17.68,10.9,25,6.71,6.12-2.78,10.61-6.73,15.7-11.16,1.85,9.51,1.59,18.16.98,27.7-4.6,71.2-56,133.77-127.52,145.73-35.7,5.96-73.04,10.43-109.27,9.98l.96-.74c-.07-.42-8.8-11.6-10.13-13.88-3.95-6.87-6.49-14.46-7.47-22.33-5.22-39.82,22.65-82.18,28.74-121.42,2.92-18.83,5.56-39.87,11.74-57.68,4.62-13.68,11.46-26.49,20.27-37.94,28.85-37.02,69.44-43.87,113.25-45.7,6.11-.25,13.16-.5,19.18-1.29l.81-.11Z"/>
  <path class="st3" d="M797.33,464.74c20.24-1.47,14.28,20.59,11.85,33.16-2.37,12.32-5.15,25.05-9.43,36.84-2.19,6.18-5.04,12.1-8.51,17.65-27.59,43.19-90.81,36.71-128.5,12.09-6.43-4.95-19-16.23-14.79-25.36,5.55-12.04,30.25,1.79,38.48,4.71,5.06,1.79,10.14,4.3,15.48,5.56,14.12,4.01,31.91,6.32,45.8.36,25-10.73,26.86-48.42,35.76-70.65,2.99-7.47,6.63-11.31,13.85-14.37Z"/>
  <path class="st3" d="M723.9,381.88c6.86-.34,10.01.13,16.58,2.1,14.84,4.45,57.7,30.66,25.95,44.83-16.87,3.98-30.78-5.79-42.41-16.9-9.46-9.04-18.76-24.83-.12-30.04Z"/>
  <path class="st2" d="M181.56,101.31c4.88,3.94,15.58,7.67,21.61,11.59,20.88,13.57,46.26,36.55,56.04,59.65-7.21,9.79-14.12,19.79-20.73,29.99-3.31,5.18-9.1,15.4-12.38,19.76-11.72-7.02-22.9-14.71-33.84-22.86-35.97-26.79-37.59-63.75-10.71-98.14Z"/>
  <path class="st3" d="M429.76,236.94c37.08-3.26,74.39,15.6,81.57,54.28,4.39,23.69-21.6,34.57-40.34,36.83-30.2.63-51.42-14.47-53.68-45.68-7.73.55-16.81,1.59-23.58-3.08-9.04-6.24-5.09-17.89.57-25.11,8.74-11.13,21.84-15.5,35.45-17.25Z"/>
  <path class="st0" d="M556.58,638.35c19.12-.69,41.33-.12,60.71-.12h116.94s115.43.01,115.43.01c19.86,0,39.84-.16,59.68.07,2.84.04,5.56.41,8.08,1.88,10.7,6.24,9.64,15.71,6.59,25.85-4.74,15.74-10.13,31.02-15.45,46.45l-27.09,78.4-15.72,45.44c-3.35,9.67-7.09,21.72-11.98,30.7-2.34,4.29-7.19,6.58-11.86,7.67-11.96.89-33.28.27-45.79.27h-87.3s-176.02,0-176.02,0c-7.82,0-55.3.83-59.96-.63-.6-3.99,12.86-43.72,15.25-51.2l33.52-104.51,14.65-45.74c2.84-8.86,5.96-19.47,9.96-27.84,1.71-3.57,6.68-5.71,10.38-6.7Z"/>
  <path class="st3" d="M710.69,712.14c36.04-3.17,50.59,36.12,30.23,62.43-10.59,13.69-21.92,20.72-38.92,23.61-40.72,2.35-50.4-35.17-29.21-63.55,9.1-12.29,22.76-20.39,37.89-22.49Z"/>
  <path class="st5" d="M283.53,731.92c.4-.06,1.4,0,1.84.02,4.27,3.38,8.26,7.13,12.65,10.56,9.56,7.39,19.61,14.13,30.07,20.19,25.29,14.75,53.7,26.89,77.98,43.18,10.15,6.8,19.9,20.31,24.84,31.27,1.38,3.07,4.37,7.5,2.53,10.8-3.78,2.5-90.68,1.13-102.63,1.13-31.84.06-62.78.86-93.82-7.39-11.25-2.99-52.57-16.4-57.17-26.22-.77-1.65-.68-2.95-.08-4.6,5.36-14.66,53.82-51.09,67.72-59.77,11.51-7.19,23.88-13.2,36.06-19.16Z"/>
  <path class="st1" d="M125.46,475.06c1.78,1.03,17.7,15.41,21.23,18.26,16.83,13.63,34.3,26.44,52.36,38.38,39.78,25.73,81.57,48.2,124.97,67.2,26.02,11.4,50.87,20.71,76.97,31.34-3.38,5.06-10.03,12.83-14.04,17.8l-6.31,7.8c-90.45-38.66-189.59-87.88-260.87-156.98,1.38-8.05,3.28-16,5.69-23.8Z"/>
  <path class="st0" d="M313.21,881.66c12.8-.38,27.5-.06,40.45-.06l76.8.05c0,5.44,1.13,12.24-.76,16.99-1.71,1.59-1.08,1.1-3.71,1.58-36.7.58-73.72-.21-110.43-.14-8.02.01-11.04-12.95-2.35-18.43Z"/>
  <path class="st6" d="M584.14,78.07c2.63-.23,5.99-.38,8.61-.34,8,.09,15.64,3.34,21.25,9.05,6.23,6.36,16.56,29.02,9.55,35.78-2.79.77-9.82-3.2-12.8-4.65-8.76-4.18-19.02-7.95-28.17-11.19-6.71-2.37-13.65-4.18-20.12-7.16-.44-2.36.66-4.22,1.82-6.23,5.46-9.39,9.74-12.57,19.87-15.27Z"/>
  <g>
    <path class="st0" d="M508.92,682.81c-15.81,45.42-28.88,94.9-45.06,139.89-8.58-12.76-14.26-21.33-26.04-31.52-31.27-27.84-81.58-40.72-113.88-68.91-5.38-4.7-9.32-8.84-14.25-14.01-9.5-9.96-17.16-25.36-29.94-30.98-8.29-3.32-18.53,1.63-19.8,10.88-.48,3.44-.07,6.43.88,9.17,1.78,5.18,5.52,9.48,8.96,14.31-46.61,24.12-81.1,47.1-112.08,90.57-5.81-5.85-11.22-12.1-16.15-18.69-2.89-3.84-5.61-7.79-8.17-11.86-30.48-48.2-32.14-103.8-26.42-158.79,2.63-25.48,6.79-50.77,12.48-75.74,68.5,62.83,147.69,103.21,231.59,141.58,12.35,5.65,32.06,15.63,45.39,17.42,5.47.74,17.15-15.62,21.17-20.61l21.12-25.89c22.96,10.96,47.59,21.93,70.2,33.18Z"/>
    <path class="st1" d="M269.81,711.64c-46.61,24.12-81.1,47.1-112.08,90.57-5.81-5.85-11.22-12.1-16.15-18.69,12.07-15.18,30.39-34.92,56.41-53.25,23.44-16.51,45.72-26.65,62.86-32.95,1.78,5.18,5.52,9.48,8.96,14.31Z"/>
  </g>
</svg>