<?xml version="1.0" standalone="no"?>
<!DOCTYPE svg PUBLIC "-//W3C//DTD SVG 20010904//EN"
 "http://www.w3.org/TR/2001/REC-SVG-20010904/DTD/svg10.dtd">
<svg version="1.0" xmlns="http://www.w3.org/2000/svg"
 width="180.000000pt" height="180.000000pt" viewBox="0 0 180.000000 180.000000"
 preserveAspectRatio="xMidYMid meet">

<g transform="translate(0.000000,180.000000) scale(0.100000,-0.100000)"
fill="#000000" stroke="none">
<path d="M66 1148 c15 -18 88 -104 162 -190 l135 -158 53 0 c30 0 54 -3 54 -7
0 -6 -38 -77 -117 -220 l-35 -63 599 0 598 1 105 157 c58 86 105 162 104 167
-1 6 -56 86 -123 178 l-122 167 -721 0 -720 0 28 -32z m350 -95 c34 -45 36
-46 30 -18 -4 17 -9 38 -12 48 -5 15 2 17 55 17 60 0 60 0 97 -47 34 -45 36
-46 30 -18 -4 17 -9 38 -12 48 -5 14 2 17 44 17 l49 0 19 -110 20 -110 -67 0
c-67 0 -68 0 -104 42 l-36 43 7 -43 7 -42 -64 0 -64 1 -65 76 c-36 42 -78 91
-93 109 l-28 34 75 0 75 0 37 -47z m496 -64 l57 -110 -71 3 -71 3 -53 100
c-30 55 -54 103 -54 108 0 4 30 7 68 7 l67 0 57 -111z m157 31 l42 -80 59 0
c56 0 60 -2 75 -30 l16 -30 -128 0 -128 0 -58 110 -58 110 69 0 68 0 43 -80z
m380 65 c57 -29 109 -113 97 -159 -8 -34 -52 -46 -167 -46 l-97 0 -56 104
c-31 57 -56 107 -56 110 0 3 56 6 125 6 91 0 134 -4 154 -15z m-719 -269 c0
-3 -18 -38 -40 -78 -22 -40 -40 -76 -40 -80 0 -5 25 -8 55 -8 l55 0 -12 -25
c-11 -25 -12 -25 -140 -25 l-128 0 46 88 c76 142 65 132 139 132 36 0 65 -2
65 -4z m224 -106 l-58 -110 -68 0 c-37 0 -68 1 -68 3 0 2 25 52 56 110 l55
107 70 0 70 0 -57 -110z m346 105 c0 -4 -7 -19 -15 -35 -15 -28 -19 -30 -79
-30 -48 0 -65 -4 -70 -15 -4 -12 5 -15 50 -15 l55 0 -16 -30 c-14 -28 -19 -30
-71 -30 -51 0 -56 -2 -72 -30 -16 -28 -21 -30 -79 -30 -35 0 -63 2 -63 5 0 8
35 76 77 153 l35 62 124 0 c68 0 124 -2 124 -5z m290 0 c0 -2 -5 -15 -11 -29
-11 -23 -18 -25 -82 -28 -92 -4 -104 -26 -17 -30 l60 -3 -15 -22 c-14 -20 -25
-23 -81 -23 -50 0 -64 -3 -64 -15 0 -12 14 -15 65 -15 l65 0 -12 -25 c-11 -25
-12 -25 -145 -25 -74 0 -133 3 -131 8 2 4 27 53 57 110 l54 102 129 0 c70 0
128 -2 128 -5z"/>
<path d="M1330 1041 c0 -5 12 -29 26 -55 17 -30 32 -46 45 -46 24 0 24 2 -1
50 -22 44 -70 79 -70 51z"/>
</g>
</svg>
